<?xml version="1.0" encoding="UTF-8"?>
<svg id="Layer_2" data-name="Layer 2" xmlns="http://www.w3.org/2000/svg" viewBox="0 0 299.37 329.89">
  <defs>
    <style>
      .cls-1 {
        fill: #45b649;
      }

      .cls-1, .cls-2, .cls-3, .cls-4, .cls-5, .cls-6, .cls-7, .cls-8, .cls-9, .cls-10, .cls-11, .cls-12, .cls-13 {
        stroke-width: 0px;
      }

      .cls-2 {
        fill: #4e5d74;
      }

      .cls-3 {
        fill: #36803e;
      }

      .cls-4 {
        fill: #0e1615;
      }

      .cls-5 {
        fill: #1d8340;
      }

      .cls-6 {
        fill: #002321;
      }

      .cls-7 {
        fill: #02a69c;
      }

      .cls-8 {
        fill: #001513;
      }

      .cls-9 {
        fill: #001210;
      }

      .cls-10 {
        fill: #001312;
      }

      .cls-11 {
        fill: #00110f;
      }

      .cls-12 {
        fill: #00100f;
      }

      .cls-13 {
        fill: #001d1b;
      }
    </style>
  </defs>
  <g id="Layer_1-2" data-name="Layer 1">
    <g id="DGQWyx">
      <g>
        <path class="cls-4" d="m244.67,275.46c-4.66,2.63-9.08,5.31-14.22,6.23-2.29.41-2.6,2.3-3.3,3.91-7.47,17.22-19.01,31.08-34.39,41.77-5.93,4.12-7.88,3.38-9.05-3.67-2.19-13.21-3.47-26.38,3.99-39.83-32.65,10.27-63.39,7.6-93.32-7.12-1.71,7.04-4.92,13.17-10.48,18.03-2.8,2.45-4.3,1.96-6.08-1.13-4.13-7.16-8.1-14.37-11.06-22.61-5.04,6.28-9.72,12.4-16.4,16.38-2.5,1.49-5.04,3.34-8.33,2.2-5.19-1.78-7.23-4.67-5.8-10.32,1.58-6.25,1.88-12.36,1.06-18.73-.6-4.63.05-9.34,1.62-13.76.89-2.52.38-3.82-1.65-5.77-16.65-15.99-29.22-34.71-36.32-56.79-2.63-8.18.27-10.85,8.69-9.06,8.44,1.79,15.92,5.72,22.91,10.51,13,8.9,26.45,11.61,41.17,4.42,13.37-6.54,26.78-13.03,41.37-16.55,31.27-7.54,61.59-4.76,91,8.24,4.54,2.01,9.2,3.77,13.68,5.9,7.96,3.8,14.92,1.78,21.18-3.57,9.17-7.85,12.94-18.66,15.44-29.94,4.73-21.36,2.65-41.58-12.98-58.18-9.9-10.5-21.97-18.09-36.67-20.56-6.22-1.04-10.66,1-13.26,6.85-1.81,4.09-3.6,8.19-5.57,12.2-2.09,4.26-5,7.85-9.4,9.93-5.65,2.67-10.61,1.57-14.34-3.41-1.78-2.38-3.66-4.1-6.84-4.31-18.67-1.24-27.52-8.52-30.8-26.63-4.08-22.51.79-42.84,19.5-57.19C163.71-.67,184.19-2.85,205.6,3.17c20.68,5.81,35.8,18.97,48.01,36.01,23.01,32.13,38.69,67.44,45.02,106.55,1.81,11.18-.17,22.56-.98,33.85-1.96,27.32-12.23,51.35-28.38,73.1-1.21,1.63-.69,2.65-.04,3.94,7.4,14.81,6.61,30.14,2.93,45.66-.78,3.29-2.69,4.69-5.01,1.65-7.24-9.5-16.56-17.34-22.49-28.46Zm-76.63-177.8l-.06-.03c3.08,5.93,6.3,6.64,11.12,2.4,3.2-2.81,5.11-6.52,6.89-10.29,1.62-3.45,2.96-7.04,4.67-10.45,3.86-7.71,9.81-10.63,18.42-9.25,1.15.18,2.33.32,3.42.7,14.05,4.86,26.7,11.83,36.09,23.8,21.29,27.11,15.37,65.98-.51,87.68-5.28,7.22-12.45,11.09-21.29,12.53-9.97,1.61-19.12-.81-28.11-4.56-22.93-9.54-46.58-12.64-71.23-8.85-14.96,2.3-28.7,8.05-42.55,13.58-10.5,4.19-21.09,6.96-32.53,4.66-9.01-1.81-16.7-6.36-24.41-10.94-5.43-3.23-10.85-6.46-16.92-8.4-1.28-.41-2.52-1.19-3.64.12-.97,1.13,0,2.17.34,3.23,6.49,20.63,18.32,37.83,33.77,52.75,1.68,1.62,2.66,1.15,4.18.06,2.41-1.71,4.99-3.04,8.18-.88-.64.54-.95.95-1.37,1.14-9.68,4.48-11.76,8.67-9.66,19.36.8,4.07,1.15,8.19,1.44,12.35.33,4.79-2.15,9.12-1.93,14.34,5.22-3.16,9.84-6.08,13.85-9.83,8.49-7.94,15.18-17.11,18.98-28.21.36-1.05.56-2.66,2.04-2.28,1.55.4.87,1.96.6,2.98-.81,3.04-1.55,6.14-2.73,9.04-1.37,3.35.03,4.95,2.78,6.63,29.93,18.21,62.11,24.63,96.6,18.19,9.77-1.83,20.25-2.46,27.45-11,.4-.48,1.12-.7,1.7-1.02,1.69-.92,3.5-1.67,4.87.29,1.34,1.92-.5,3.08-1.57,4.18-4.29,4.42-9.68,7.59-13.88,12.16-3.65,3.97-6.38,8.47-5.8,13.83.77,7.15,2.47,14.21,3.86,21.78,14.99-10.38,25.7-23.44,33.07-39.3,2.03-4.37,3.8-8.83,5.11-13.47.34-1.2.78-2.86,2.59-2.33,1.8.52,1.22,2.16,1.01,3.39-.37,2.12-.94,4.21-1.42,6.31-.03.4-.06.8-.08,1.2.36-.12.71-.23,1.07-.35,21.49-11.48,36.93-28.53,46.62-50.8,7.16-16.44,10.76-33.7,12.42-51.53,1.71-18.35,1.6-36.33-4.37-54.11-10.6-31.6-24.11-61.57-46.91-86.44-17-18.55-37.38-29.77-63.51-26.27-11.98,1.61-23.39,5.06-32.06,14.39-14.05,15.12-16.91,32.98-12.66,52.43,4,18.3,24.72,27.34,40.35,12.24,2.75-2.66,5.43-5.4,8.11-8.13,1.05-1.07,1.98-2.5,3.73-1.88,1.96.69,1.93,2.54,1.85,4.19-.32,6.91-2.69,12.99-7.68,17.87-1.66,1.63-3.56,3.19-6.14,1.53.08-2.45,1.76-3.76,3.48-5.14,2.86-2.29,5.04-5.04,5.33-10.22-4.38,5.45-9.27,8.53-14.11,11.67-1.41.76-1.28,1.11,1.17,2.99Zm96.41,161.46c-4.57,4.03-8.37,7.49-12.3,10.8-1.4,1.18-1.71,2.37-.87,3.88,4.52,8.1,10.09,15.44,16.57,23,2.46-13.27-.74-25.08-3.4-37.68Zm-183.08,31.49c4.23-3.94,6.04-8.61,7.26-13.71.57-2.39-.04-3.57-1.96-4.91-3.81-2.65-7.38-5.64-11.09-8.44-.94-.71-1.87-2.67-3.12-1.37-1.1,1.15-2.75,2.7-1.82,4.78,3.51,7.81,6.24,16,10.71,23.66Z"/>
        <path class="cls-1" d="m231.43,274.02c.49-2.1,1.06-4.19,1.43-6.31.22-1.23.79-2.87-1.01-3.39-1.81-.53-2.26,1.13-2.59,2.33-1.31,4.65-3.08,9.11-5.11,13.47-7.37,15.86-18.08,28.92-33.07,39.3-1.39-7.57-3.09-14.62-3.86-21.78-.58-5.36,2.16-9.86,5.8-13.83,4.2-4.57,9.59-7.74,13.88-12.16,1.07-1.1,2.9-2.26,1.57-4.18-1.37-1.97-3.18-1.21-4.87-.29-.58.32-1.3.54-1.7,1.02-7.19,8.54-17.68,9.18-27.45,11-34.49,6.44-66.67.02-96.6-18.19-2.76-1.68-4.15-3.28-2.78-6.63,1.18-2.9,1.92-6,2.73-9.04.27-1.02.95-2.58-.6-2.98-1.48-.38-1.68,1.24-2.04,2.28-3.81,11.1-10.49,20.28-18.98,28.21-4.01,3.75-8.64,6.67-13.85,9.83-.22-5.22,2.26-9.55,1.93-14.34-.29-4.16-.64-8.27-1.44-12.35-2.1-10.69-.02-14.88,9.66-19.36.41-.19.72-.6,1.37-1.14-3.19-2.16-5.77-.84-8.18.88-1.52,1.08-2.5,1.56-4.18-.06-15.45-14.92-27.28-32.11-33.77-52.75-.33-1.06-1.31-2.1-.34-3.23,1.13-1.31,2.37-.53,3.64-.12,6.07,1.94,11.49,5.18,16.92,8.4,7.72,4.58,15.41,9.14,24.41,10.94,11.45,2.3,22.03-.47,32.53-4.66,13.85-5.53,27.59-11.27,42.55-13.58,24.65-3.8,48.3-.7,71.23,8.85,8.99,3.74,18.14,6.17,28.11,4.56,8.84-1.43,16.01-5.31,21.29-12.53,15.88-21.7,21.79-60.57.51-87.68-9.39-11.97-22.04-18.93-36.09-23.8-1.09-.38-2.27-.52-3.42-.7-8.61-1.38-14.56,1.54-18.42,9.25-1.71,3.41-3.04,6.99-4.67,10.45-1.77,3.77-3.69,7.48-6.89,10.29-4.82,4.24-8.04,3.54-11.12-2.4,1.56-.69,2.81.41,4.19.72,2.58,1.66,4.48.1,6.14-1.53,4.99-4.88,7.36-10.96,7.68-17.87.08-1.66.11-3.5-1.85-4.19-1.75-.62-2.68.82-3.73,1.88-2.68,2.73-5.36,5.47-8.11,8.13-15.63,15.1-36.34,6.06-40.35-12.24-4.25-19.45-1.39-37.3,12.66-52.43,8.67-9.34,20.08-12.79,32.06-14.39,26.13-3.5,46.51,7.72,63.51,26.27,22.8,24.88,36.31,54.85,46.91,86.44,5.97,17.78,6.08,35.76,4.37,54.11-1.66,17.83-5.26,35.09-12.42,51.53-9.7,22.27-25.14,39.32-46.62,50.8-.33-.28-.66-.57-.99-.85Zm-89.2-9.6c14.14.95,27.29-1.79,38.87-10.01,5.55-3.94,8.57-9.73,8.92-16.54.47-9.22-5.63-17.29-15.98-21.2-12.05-4.55-24.44-6.31-37.42-5.34-12.01.9-23.3,3.64-33.58,9.81-9.46,5.67-13.28,13.38-7.5,24.32,4.58,8.68,12.12,13.42,21.25,16,8.35,2.35,16.85,3.71,25.45,2.96ZM203.02,17.65c-2.16,0-4.34-.16-6.48.03-8.55.76-12.05,8.14-7.58,15.41,2.28,3.71,5.5,6.14,9.21,8.09,13.82,7.27,29.02,11.47,42.64,19.21.99.56,2.18.84,3.31,1.05,4.91.93,7.52-2.17,6.03-6.98-1.3-4.18-3.68-7.81-5.96-11.44-9.55-15.17-22.53-24.89-41.16-25.37Zm85.31,149.16c.11-13.11-2.48-25.78-5.66-38.36-.31-1.22-.25-3.81-2.11-3.34-2.43.61-.74,2.9-.43,4.25,1.5,6.5,2.46,13.09,2.63,19.71.89,36.05-10.14,68.26-31.69,97.01-.99,1.33-2.11,2.6-2.86,4.06-.63,1.22-.49,2.58.74,3.6,1.35,1.12,2.47.51,3.54-.41.75-.65,1.46-1.37,2.15-2.09,22.64-23.61,32.66-52.24,33.7-84.44Zm-144.68,19.55c-20.23-.11-35.1,5.97-47.98,17.15-1.11.97-3.57,1.99-2.19,3.81,1.39,1.85,2.94-.4,4.24-1.08,22.11-11.58,44.79-13.39,68.07-3.94,2.53,1.03,5.14,1.23,7.71,1.78,1.6.34,2.88-.19,3.86-1.6,1.14-1.63.09-2.82-.64-4.08-1.56-2.68-3.83-4.52-6.67-5.73-9.41-4.01-19.15-6.43-26.4-6.32Zm89.59,40.16c-6.15-.37-11.92,1.09-17.2,4.1-3.12,1.78-5.24,4.48-2.77,8.22,7.82,11.85,15.09,12.14,26.05,3.78,3.93-2.99,6.24-7.39,4.34-12.28-1.79-4.6-6.45-3.85-10.42-3.82Zm-15.1-14.91c6.22-.09,11.36-1.21,15.87-4.27,2.06-1.4,4.26-3.4,2.84-6.15-1.39-2.68-4.08-.93-5.75-.25-6.18,2.53-12.46,4.37-19.16,4.59-1.29.04-2.33.42-2.67,1.72-.41,1.6.59,2.53,1.92,3.02,2.49.92,5.05,1.64,6.95,1.34Zm-23.24-2.14c3.64-.03,6.65-3.04,6.6-6.61-.05-3.61-3.09-6.57-6.69-6.51-3.69.06-6.72,3.03-6.68,6.55.04,3.4,3.33,6.59,6.77,6.57Zm-15.69-163.49c-.34-2.33-2.25-2.96-4.23-3.29-5.24-.88-13.55,5.96-13.79,11.27-.04.89.18,1.63.91,2.15,1.02.74,1.89.27,2.61-.48,3.19-3.29,7.28-5,11.43-6.64,1.34-.53,2.84-1.07,3.07-3.01Zm-36.19,31.56c.13-1.97-.75-3.37-2.72-3.35-1.74.02-2.49,1.42-2.43,3.14.07,1.88.75,3.24,2.89,3.27,2.15.03,2.28-1.47,2.25-3.06Zm9.07,3.02c1.96-.63,2.43-2.43,2.88-4.1.3-1.11-.48-1.88-1.63-1.95-2.07-.14-2.93,1.22-3.16,2.98-.19,1.39.33,2.55,1.91,3.07Z"/>
        <path class="cls-3" d="m264.45,259.11c2.67,12.61,5.86,24.42,3.4,37.68-6.49-7.56-12.05-14.9-16.57-23-.84-1.51-.53-2.7.87-3.88,3.93-3.31,7.73-6.77,12.3-10.8Z"/>
        <path class="cls-3" d="m81.37,290.6c-4.48-7.65-7.2-15.84-10.71-23.66-.94-2.08.71-3.63,1.82-4.78,1.25-1.3,2.18.66,3.12,1.37,3.71,2.8,7.28,5.79,11.09,8.44,1.92,1.34,2.53,2.52,1.96,4.91-1.22,5.1-3.03,9.77-7.26,13.71Z"/>
        <path class="cls-2" d="m172.17,98.35c-1.39-.31-2.64-1.4-4.19-.72,0,0,.06.03.06.03.51-1.35-.85-1.97-1.17-2.99,4.84-3.14,9.73-6.22,14.11-11.67-.3,5.18-2.47,7.92-5.33,10.22-1.72,1.38-3.4,2.69-3.48,5.14Z"/>
        <path class="cls-7" d="m166.87,94.67c.32,1.03,1.68,1.65,1.17,2.99-2.44-1.88-2.58-2.23-1.17-2.99Z"/>
        <path class="cls-7" d="m232.42,274.87c-.36.12-.71.23-1.07.35.03-.4.06-.8.08-1.2.33.28.66.57.98.85Z"/>
        <path class="cls-5" d="m142.23,264.42c-8.6.75-17.1-.6-25.45-2.96-9.12-2.57-16.66-7.32-21.25-16-5.78-10.94-1.95-18.65,7.5-24.32,10.27-6.16,21.56-8.91,33.58-9.81,12.99-.97,25.37.79,37.42,5.34,10.34,3.91,16.45,11.98,15.98,21.2-.35,6.81-3.37,12.6-8.92,16.54-11.58,8.22-24.73,10.96-38.87,10.01Z"/>
        <path class="cls-5" d="m203.02,17.65c18.63.48,31.61,10.2,41.16,25.37,2.29,3.64,4.67,7.26,5.96,11.44,1.49,4.81-1.12,7.91-6.03,6.98-1.13-.21-2.32-.49-3.31-1.05-13.62-7.73-28.82-11.93-42.64-19.21-3.71-1.95-6.93-4.38-9.21-8.09-4.47-7.27-.97-14.65,7.58-15.41,2.14-.19,4.32-.03,6.48-.03Z"/>
        <path class="cls-10" d="m288.34,166.82c-1.04,32.19-11.06,60.83-33.7,84.44-.69.72-1.4,1.43-2.15,2.09-1.07.93-2.19,1.53-3.54.41-1.23-1.02-1.37-2.38-.74-3.6.75-1.46,1.87-2.73,2.86-4.06,21.54-28.75,32.57-60.96,31.69-97.01-.16-6.63-1.13-13.22-2.63-19.71-.31-1.35-2-3.64.43-4.25,1.86-.47,1.8,2.12,2.11,3.34,3.19,12.57,5.78,25.25,5.66,38.36Z"/>
        <path class="cls-12" d="m143.66,186.36c7.25-.11,16.99,2.31,26.4,6.32,2.85,1.21,5.12,3.05,6.67,5.73.73,1.26,1.78,2.45.64,4.08-.98,1.41-2.26,1.94-3.86,1.6-2.58-.54-5.18-.75-7.71-1.78-23.29-9.45-45.96-7.64-68.07,3.94-1.3.68-2.85,2.93-4.24,1.08-1.38-1.83,1.08-2.85,2.19-3.81,12.88-11.19,27.74-17.26,47.98-17.15Z"/>
        <path class="cls-5" d="m233.24,226.52c3.98-.02,8.64-.78,10.43,3.82,1.9,4.9-.42,9.29-4.34,12.28-10.96,8.35-18.23,8.07-26.05-3.78-2.46-3.74-.35-6.44,2.77-8.22,5.28-3.02,11.05-4.48,17.19-4.11Z"/>
        <path class="cls-9" d="m218.15,211.61c-1.9.3-4.45-.43-6.95-1.34-1.33-.49-2.33-1.42-1.92-3.02.33-1.3,1.38-1.68,2.67-1.72,6.7-.21,12.98-2.05,19.16-4.59,1.67-.69,4.37-2.43,5.75.25,1.43,2.76-.77,4.75-2.84,6.15-4.51,3.06-9.65,4.18-15.87,4.27Z"/>
        <path class="cls-11" d="m194.91,209.47c-3.43.03-6.73-3.17-6.77-6.57-.04-3.52,2.98-6.49,6.68-6.55,3.6-.06,6.64,2.9,6.69,6.51.05,3.57-2.96,6.58-6.6,6.61Z"/>
        <path class="cls-8" d="m179.22,45.98c-.23,1.94-1.73,2.48-3.07,3.01-4.15,1.64-8.24,3.35-11.43,6.64-.72.75-1.59,1.22-2.61.48-.73-.53-.95-1.26-.91-2.15.24-5.3,8.55-12.15,13.79-11.27,1.98.33,3.89.96,4.23,3.29Z"/>
        <path class="cls-13" d="m143.04,77.54c.03,1.59-.1,3.09-2.25,3.06-2.14-.03-2.82-1.39-2.89-3.27-.06-1.72.68-3.12,2.43-3.14,1.96-.02,2.85,1.38,2.72,3.35Z"/>
        <path class="cls-6" d="m152.1,80.56c-1.57-.52-2.09-1.68-1.91-3.07.24-1.76,1.1-3.12,3.16-2.98,1.14.08,1.93.84,1.63,1.95-.45,1.67-.92,3.47-2.88,4.1Z"/>
      </g>
    </g>
  </g>
</svg>