<?xml version="1.0" encoding="UTF-8"?>
<svg id="Layer_2" data-name="Layer 2" xmlns="http://www.w3.org/2000/svg" viewBox="0 0 482.16 45.92">
  <defs>
    <style>
      .cls-1 {
        fill: none;
        stroke: #fff;
        stroke-linecap: round;
        stroke-miterlimit: 10;
        stroke-width: 3px;
      }

      .cls-2 {
        opacity: .49;
      }

      .cls-2, .cls-3, .cls-4, .cls-5, .cls-6 {
        stroke-width: 0px;
      }

      .cls-2, .cls-3, .cls-6 {
        fill: #fff;
      }

      .cls-3 {
        opacity: .62;
      }

      .cls-4 {
        fill: #a7a9ac;
      }

      .cls-5 {
        fill: #a9403f;
      }
    </style>
  </defs>
  <g id="Layer_1-2" data-name="Layer 1">
    <g>
      <path class="cls-6" d="m168.46,23.1v10.21l-23.53-31.3h-.12v9.87l23.4,31.35c.43.57,1.1.91,1.82.91h4.4v-21.05h-5.96Z"/>
      <polygon class="cls-3" points="148.4 6.64 144.92 2.01 144.8 2.01 144.8 11.88 148.4 16.71 148.4 6.64"/>
      <path class="cls-6" d="m170.72,2.01c-1.25,0-2.27,1.02-2.27,2.27v29.03l5.96,7.98V4.28c0-1.25-1.02-2.27-2.27-2.27h-1.42Z"/>
      <polygon class="cls-3" points="168.46 33.31 174.41 41.29 174.41 31.12 168.46 23.2 168.46 33.31"/>
      <path class="cls-6" d="m138.78,4.28v37.6c0,1.25,1.02,2.27,2.27,2.27h1.48c1.25,0,2.27-1.02,2.27-2.27V2.01h-3.75c-1.25,0-2.27,1.02-2.27,2.27Z"/>
    </g>
    <g>
      <path class="cls-6" d="m242.85,38.55h21.46c1.54,0,2.8,1.25,2.8,2.8h0c0,1.54-1.25,2.8-2.8,2.8h-21.46v-5.6h0Z"/>
      <rect class="cls-2" x="242.85" y="38.55" width="6.52" height="5.6"/>
      <path class="cls-6" d="m242.85,38.55V4.28c0-1.25-1.02-2.27-2.27-2.27h-1.78c-1.25,0-2.27,1.02-2.27,2.27v37.6c0,1.25,1.02,2.27,2.27,2.27h4.05v-5.6Z"/>
    </g>
    <g>
      <path class="cls-6" d="m208.86,2.01h-4.51c-.92,0-1.75.56-2.1,1.41l-15.57,37.7c-.62,1.5.48,3.14,2.1,3.14h1.64c.93,0,1.77-.57,2.11-1.43l4.38-10.94h17.45l4.32,10.94c.34.87,1.18,1.44,2.12,1.44h1.95c1.62,0,2.72-1.64,2.11-3.14l-15.98-39.12Zm-9.9,24.63l6.7-16.77,6.64,16.77h-13.34Z"/>
      <polygon class="cls-3" points="201.85 26.64 199.8 31.89 196.91 31.89 198.96 26.64 201.85 26.64"/>
      <polygon class="cls-3" points="209.4 26.64 211.46 31.89 214.35 31.89 212.3 26.64 209.4 26.64"/>
      <polygon class="cls-3" points="207.36 14.16 209.73 8.32 208.68 10.9 210.58 6.23 208.86 2.01 205.66 9.87 207.36 14.16"/>
    </g>
    <path class="cls-6" d="m16.73,44.29c-3.28,0-6.45-.64-9.5-1.93-2.37-1-4.52-2.32-6.47-3.96-.93-.79-1.02-2.2-.22-3.12l.86-1c.8-.93,2.2-1.01,3.13-.21,1.7,1.44,3.43,2.56,5.19,3.36,2.33,1.06,4.76,1.58,7.3,1.58,1.99,0,3.74-.28,5.25-.85,1.83-.69,3.15-1.74,3.97-3.14.55-.94.79-2.04.75-3.13-.06-1.71-.7-3.03-1.93-3.96-1.29-.98-3.42-1.72-6.39-2.23l-6.86-1.11c-3.75-.66-6.56-1.88-8.42-3.64-1.86-1.76-2.79-4.11-2.79-7.04,0-2.35.62-4.41,1.88-6.19,1.25-1.78,3.02-3.16,5.31-4.13,2.29-.98,4.94-1.47,7.95-1.47s5.89.48,8.77,1.44c2.12.71,4.08,1.64,5.9,2.81,1.06.68,1.3,2.12.56,3.14l-.81,1.11c-.7.97-2.03,1.19-3.03.53-3.85-2.54-7.74-3.8-11.68-3.8-1.8,0-3.36.25-4.69.76-1.33.51-2.37,1.22-3.11,2.14-.74.92-1.11,1.98-1.11,3.2,0,1.68.57,2.96,1.7,3.84,1.13.88,3.01,1.52,5.63,1.91l6.63,1.11c4.34.7,7.53,1.97,9.56,3.81,2.03,1.84,3.05,4.36,3.05,7.57,0,2.5-.68,4.7-2.05,6.6-1.37,1.9-3.28,3.37-5.75,4.43-2.46,1.06-5.32,1.58-8.56,1.58Z"/>
    <g>
      <path class="cls-6" d="m119.54,26.95c-.27,2.23-1.04,4.23-2.28,6-1.25,1.78-2.86,3.17-4.83,4.19-1.97,1.02-4.17,1.52-6.59,1.52-2.15,0-4.14-.39-5.97-1.17-1.84-.78-3.45-1.87-4.83-3.28-1.39-1.41-2.46-3.05-3.22-4.95-.76-1.89-1.14-3.93-1.14-6.12s.38-4.28,1.14-6.15c.76-1.87,1.83-3.5,3.19-4.89,1.37-1.39,2.96-2.47,4.77-3.25,1.82-.78,3.8-1.17,5.94-1.17,2.38,0,4.66.48,6.82,1.44,1.52.67,2.87,1.54,4.05,2.6.86.77,2.17.74,3-.06l1.03-1c.94-.91.87-2.41-.11-3.27-1.63-1.43-3.49-2.6-5.6-3.51-2.89-1.25-5.96-1.87-9.2-1.87-3.01,0-5.8.55-8.38,1.64-2.58,1.09-4.84,2.61-6.79,4.54-1.95,1.93-3.47,4.18-4.54,6.74-1.07,2.56-1.61,5.3-1.61,8.23s.55,5.67,1.64,8.23c1.09,2.56,2.62,4.8,4.57,6.74,1.95,1.93,4.23,3.45,6.82,4.54,2.6,1.09,5.4,1.64,8.4,1.64,2.85,0,5.51-.52,7.97-1.55,2.46-1.03,4.6-2.49,6.41-4.36,1.82-1.87,3.23-4.06,4.25-6.56.63-1.54,1.06-3.16,1.3-4.86h-6.22Z"/>
      <path class="cls-6" d="m125.76,26.95h-6.22c-.12.96-.33,1.88-.63,2.76h6.27c.25-.89.45-1.81.58-2.76Z"/>
      <path class="cls-6" d="m105.9,24.74c0,1.22.99,2.21,2.21,2.21h17.66c.15-1.06.23-2.15.23-3.28v-2.11s-17.88,0-17.88,0c-1.22,0-2.21.99-2.21,2.21v.97Z"/>
    </g>
    <g>
      <path class="cls-6" d="m58.91,18.43h0c-2.22,0-4.3.58-6.11,1.58v3.35h3.08v.06c.94-.37,1.95-.58,3.02-.58s2.09.21,3.02.58v-.06h3.08v-3.35c-1.81-1-3.89-1.58-6.11-1.58Z"/>
      <path class="cls-6" d="m58.91,10.17h0c-4.75,0-9.13,1.59-12.64,4.26h.94v3.05h2.41c2.65-1.82,5.84-2.9,9.3-2.9s6.65,1.08,9.3,2.9h2.41v-3.05h.94c-3.51-2.67-7.89-4.26-12.64-4.26Z"/>
      <path class="cls-6" d="m58.91,1.91h0c-7.05,0-13.5,2.5-18.54,6.66h.55v3l.02.02h2.71c4.21-3.3,9.5-5.27,15.27-5.27s11.06,1.97,15.27,5.27h2.71l.02-.02v-3h.55c-5.04-4.16-11.5-6.66-18.54-6.66Z"/>
      <rect class="cls-6" x="55.93" y="28.15" width="5.96" height="16.14" rx="2.2" ry="2.2"/>
      <path class="cls-4" d="m53.65,19.59c-.42.18-.85.39-1.32.68-.85.52-1.01,1.7-.3,2.41l1.02,1.02c.48.48,1.22.55,1.82.22.49-.28,1.02-.51,1.57-.68.78-.25,1-1.24.42-1.82l-1.5-1.5c-.45-.45-1.13-.57-1.71-.32Z"/>
      <path class="cls-4" d="m47.34,13.67c-.37.25-.73.5-1.09.77-.74.56-.8,1.66-.15,2.31l.96.96c.54.54,1.39.6,2,.14.31-.23.64-.46.97-.67.82-.52.92-1.68.24-2.36l-.97-.97c-.52-.52-1.34-.59-1.96-.18Z"/>
      <path class="cls-4" d="m41.34,7.8c-.34.26-.67.52-1,.79-.71.58-.75,1.65-.1,2.3l.92.92c.56.56,1.45.61,2.07.11.3-.24.6-.48.9-.71.76-.57.86-1.67.18-2.35l-.93-.93c-.55-.55-1.42-.61-2.04-.14Z"/>
      <path class="cls-4" d="m64.18,19.59c.42.18.85.39,1.32.68.85.52,1.01,1.7.3,2.41l-1.02,1.02c-.48.48-1.22.55-1.82.22-.49-.28-1.02-.51-1.57-.68-.78-.25-1-1.24-.42-1.82l1.5-1.5c.45-.45,1.13-.57,1.71-.32Z"/>
      <path class="cls-4" d="m70.49,13.67c.37.25.73.5,1.09.77.74.56.8,1.66.15,2.31l-.96.96c-.54.54-1.39.6-2,.14-.31-.23-.64-.46-.97-.67-.82-.52-.92-1.68-.24-2.36l.97-.97c.52-.52,1.34-.59,1.96-.18Z"/>
      <path class="cls-4" d="m76.49,7.8c.34.26.67.52,1,.79.71.58.75,1.65.1,2.3l-.92.92c-.56.56-1.45.61-2.07.11-.3-.24-.6-.48-.9-.71-.76-.57-.86-1.67-.18-2.35l.93-.93c.55-.55,1.42-.61,2.04-.14Z"/>
      <path class="cls-5" d="m47.21,9.26c-.06.03-.12.06-.18.1.06-.03.12-.06.18-.1Z"/>
    </g>
    <g>
      <rect class="cls-6" x="420.32" y="1.02" width="28.81" height="3.13"/>
      <rect class="cls-6" x="460.6" y="1.02" width="21.56" height="3.13"/>
      <rect class="cls-6" x="460.6" y="41.65" width="21.56" height="3.13"/>
      <rect class="cls-6" x="469.8" y="7.34" width="3.16" height="31.47"/>
      <rect class="cls-6" x="433.16" y="17.59" width="3.13" height="27.2"/>
      <rect class="cls-6" x="433.16" y="3.48" width="3.13" height="14.11"/>
      <g>
        <path class="cls-6" d="m398.17,16.02c-5.69-5.69-14.96-5.69-20.65,0l-2.21-2.21c6.92-6.92,18.17-6.92,25.08,0l-2.21,2.21Z"/>
        <path class="cls-6" d="m404.69,10.11c-4.5-4.5-10.49-6.98-16.85-6.98s-12.35,2.48-16.85,6.98l-2.21-2.21c5.09-5.09,11.86-7.9,19.07-7.9s13.97,2.8,19.07,7.9l-2.21,2.21Z"/>
        <path class="cls-6" d="m392.1,22.03c-1.14-1.14-2.65-1.77-4.26-1.77s-3.12.63-4.26,1.77l-2.21-2.21c3.57-3.57,9.38-3.57,12.95,0l-2.21,2.21Z"/>
      </g>
      <rect class="cls-6" x="324.63" y="1.05" width="3.13" height="43.74"/>
      <polygon class="cls-6" points="337.9 22.88 354.6 1.02 350.63 1.02 333.93 22.88 337.9 22.88"/>
      <polygon class="cls-6" points="354.6 44.79 337.9 22.93 341.87 22.93 358.57 44.79 354.6 44.79"/>
      <polygon class="cls-6" points="346.72 44.79 330.02 22.93 334 22.93 350.69 44.79 346.72 44.79"/>
      <path class="cls-6" d="m404.12,13.97c4.43,7.36,3.34,17.08-2.84,23.25-3.59,3.59-8.36,5.57-13.44,5.57s-9.85-1.98-13.44-5.57c-6.18-6.18-7.27-15.89-2.84-23.25l-2.31-2.2c-2.6,4.01-3.83,8.79-3.49,13.6.38,5.31,2.66,10.3,6.43,14.07,4.18,4.18,9.74,6.48,15.65,6.48s11.47-2.3,15.65-6.48c3.77-3.77,6.05-8.76,6.43-14.07.34-4.81-.9-9.59-3.49-13.6l-2.31,2.2Z"/>
    </g>
    <line class="cls-1" x1="286.96" y1="25.47" x2="303.8" y2="42.31"/>
    <line class="cls-1" x1="303.8" y1="25.47" x2="286.96" y2="42.31"/>
  </g>
</svg>