<?xml version="1.0" encoding="UTF-8"?>
<svg id="Layer_2" data-name="Layer 2" xmlns="http://www.w3.org/2000/svg" viewBox="0 0 387.69 319.05">
  <defs>
    <style>
      .cls-1 {
        stroke: #231f20;
        stroke-width: 5px;
      }

      .cls-1, .cls-2 {
        fill: none;
        stroke-miterlimit: 10;
      }

      .cls-2 {
        stroke: #ed2024;
        stroke-width: 35px;
      }

      .cls-3 {
        fill: #841619;
      }

      .cls-3, .cls-4, .cls-5, .cls-6, .cls-7, .cls-8, .cls-9, .cls-10, .cls-11, .cls-12, .cls-13, .cls-14, .cls-15 {
        stroke-width: 0px;
      }

      .cls-4 {
        fill: #4e5d74;
      }

      .cls-5 {
        fill: #0e1615;
      }

      .cls-6 {
        fill: #8c191b;
      }

      .cls-7 {
        fill: #ed2024;
      }

      .cls-8 {
        fill: #002321;
      }

      .cls-9 {
        fill: #02a69c;
      }

      .cls-10 {
        fill: #001513;
      }

      .cls-11 {
        fill: #001210;
      }

      .cls-12 {
        fill: #001312;
      }

      .cls-13 {
        fill: #00110f;
      }

      .cls-14 {
        fill: #00100f;
      }

      .cls-15 {
        fill: #001d1b;
      }
    </style>
  </defs>
  <g id="Layer_1-2" data-name="Layer 1">
    <path class="cls-2" d="m83.14,76.33c156.33-128.23,269.17-5.23,268.31,7.81"/>
    <g id="DGQWyx">
      <g>
        <path class="cls-5" d="m385.97,168.74c.81-11.29,2.79-22.67.98-33.85-3.2-19.78-8.8-38.6-16.53-56.52l-5,2.56c3.66,8.7,6.95,17.61,9.99,26.66,5.97,17.78,6.08,35.76,4.37,54.11-1.66,17.83-5.26,35.09-12.42,51.53-9.7,22.27-25.14,39.32-46.62,50.8-.36.12-.71.23-1.07.35.03-.4.06-.8.08-1.2.48-2.1,1.05-4.19,1.42-6.31.22-1.23.79-2.87-1.01-3.39-1.81-.53-2.26,1.13-2.59,2.33-1.31,4.65-3.08,9.11-5.11,13.47-7.37,15.86-18.08,28.92-33.07,39.3-1.39-7.57-3.09-14.62-3.86-21.78-.58-5.36,2.16-9.86,5.8-13.83,4.2-4.57,9.59-7.74,13.88-12.16,1.07-1.1,2.9-2.26,1.57-4.18-1.37-1.97-3.18-1.21-4.87-.29-.58.32-1.3.54-1.7,1.02-7.19,8.54-17.68,9.18-27.45,11-34.49,6.44-66.67.02-96.6-18.19-2.76-1.68-4.15-3.28-2.78-6.63,1.18-2.9,1.92-6,2.73-9.04.27-1.02.95-2.58-.6-2.98-1.48-.38-1.68,1.24-2.04,2.28-3.81,11.1-10.49,20.28-18.98,28.21-4.01,3.75-8.64,6.67-13.85,9.83-.22-5.22,2.26-9.55,1.93-14.34-.29-4.16-.64-8.27-1.44-12.35-2.1-10.69-.02-14.88,9.66-19.36.41-.19.72-.6,1.37-1.14-3.19-2.16-5.77-.84-8.18.88-1.52,1.08-2.5,1.56-4.18-.06-15.45-14.92-27.28-32.11-33.77-52.75-.33-1.06-1.31-2.1-.34-3.23,1.13-1.31,2.37-.53,3.64-.12,6.07,1.94,11.49,5.18,16.92,8.4,7.72,4.58,15.41,9.14,24.41,10.94,11.45,2.3,22.03-.47,32.53-4.66,13.85-5.53,27.59-11.27,42.55-13.58,24.65-3.8,48.3-.7,71.23,8.85,8.99,3.74,18.14,6.17,28.11,4.56,8.84-1.43,16.01-5.31,21.29-12.53,14.22-19.43,20.43-52.63,6.29-78.83l-3.8,1.95c8.98,14.61,9.68,31.35,5.81,48.86-2.5,11.28-6.27,22.1-15.44,29.94-6.25,5.35-13.22,7.37-21.18,3.57-4.48-2.14-9.14-3.9-13.68-5.9-29.41-13-59.73-15.77-91-8.24-14.59,3.52-28,10.01-41.37,16.55-14.72,7.2-28.17,4.49-41.17-4.42-6.99-4.79-14.47-8.71-22.91-10.51-8.42-1.79-11.32.89-8.69,9.06,7.11,22.07,19.67,40.8,36.32,56.79,2.02,1.94,2.54,3.24,1.65,5.77-1.57,4.43-2.21,9.14-1.62,13.76.82,6.36.52,12.47-1.06,18.73-1.42,5.65.61,8.54,5.8,10.32,3.29,1.13,5.84-.72,8.33-2.2,6.68-3.98,11.35-10.1,16.4-16.38,2.96,8.23,6.93,15.45,11.06,22.61,1.78,3.09,3.27,3.58,6.08,1.13,5.56-4.86,8.77-11,10.48-18.03,29.93,14.72,60.67,17.4,93.32,7.12-7.46,13.45-6.18,26.62-3.99,39.83,1.17,7.05,3.12,7.8,9.05,3.67,15.38-10.69,26.92-24.56,34.39-41.77.7-1.6,1.01-3.5,3.3-3.91,5.15-.92,9.56-3.6,14.22-6.23,5.92,11.12,15.24,18.97,22.49,28.46,2.31,3.03,4.23,1.64,5.01-1.65,3.68-15.52,4.47-30.85-2.93-45.66-.65-1.29-1.17-2.31.04-3.94,16.15-21.75,26.43-45.78,28.38-73.1Zm-209.02,97.31c-1.22,5.1-3.03,9.77-7.26,13.71-4.48-7.65-7.2-15.84-10.71-23.66-.94-2.08.71-3.63,1.82-4.78,1.25-1.3,2.18.66,3.12,1.37,3.71,2.8,7.28,5.79,11.09,8.44,1.92,1.34,2.53,2.52,1.96,4.91Zm179.22,19.91c-6.49-7.56-12.05-14.9-16.57-23-.84-1.51-.53-2.7.87-3.88,3.93-3.31,7.73-6.77,12.3-10.8,2.67,12.61,5.86,24.42,3.4,37.68Z"/>
        <path class="cls-5" d="m337.92,85.05c-1.36.83-2.72,1.67-4.08,2.5,1.91,2.25,3.6,4.57,5.05,6.94l3.8-1.95c-1.39-2.58-2.98-5.08-4.78-7.5Z"/>
        <path class="cls-5" d="m90.73,85.11c-11.4,10.08-17.62,23.11-21.65,37.42-.31,1.11-.38,2.3-.5,3.45-.88,8.68,2.38,14.45,10.31,17.85,3.5,1.51,7.16,2.63,10.7,4.05,3.86,1.55,7.68,3.25,10.67,6.28,4.52,4.57,4,7.82-1.74,11.24l.02-.06c-1.73,2.55-2.07,2.71-2.92,1.34-3.42-4.65-6.77-9.35-12.47-13.41,5.18,0,8.05,2.01,10.51,4.73,1.48,1.64,2.88,3.24,5.33,3.17,1.51-2.68-.17-4.48-1.89-6.05-5.16-4.69-11.37-6.7-18.29-6.62-1.66.02-3.5.1-4.08,2.09-.52,1.79.97,2.63,2.1,3.61,2.88,2.52,5.77,5.03,8.59,7.63,15.99,14.72,8.17,35.93-9.86,40.99-19.17,5.38-37.16,3.56-53.08-9.58-9.82-8.11-13.93-19.3-16.24-31.17-5.02-25.88,5-46.88,22.53-64.93,14.25-14.68,30.59-26.05,48.12-35.5-.99-1.54-1.98-3.08-2.95-4.61-13.53,7.54-26.45,16.33-38.77,26.3-16.3,13.18-28.55,29.05-33.15,50.03-4.76,21.72-1.4,42.04,13.19,58.92,15.42,17.84,36,21.52,58.23,16.13,17.88-4.33,24.64-13.59,24.79-32.3.03-3.19,1.63-5.16,3.9-7.08,4.75-4.02,5.57-9.03,2.57-14.52-2.34-4.28-6.09-6.97-10.46-8.81-4.12-1.73-8.32-3.28-12.5-4.85-5.99-2.25-8.29-6.56-7.62-12.83,1.61-14.82,8.48-27.32,18.39-37.81.74-.78,1.49-1.53,2.25-2.26-.91-1.31-1.83-2.62-2.74-3.93-.43.36-.87.71-1.29,1.08Z"/>
        <path class="cls-5" d="m365.43,80.92l5-2.56c-1.42-3.3-2.94-6.55-4.5-9.79-1.59.88-3.19,1.77-4.78,2.67,1.49,3.19,2.91,6.42,4.28,9.67Z"/>
        <path class="cls-7" d="m375.42,107.59c-3.16-9.43-6.58-18.71-10.43-27.76l-23.57,10.42c15.8,26.52,9.63,61.12-5.01,81.13-5.28,7.22-12.45,11.09-21.29,12.53-9.97,1.61-19.12-.81-28.11-4.56-22.93-9.54-46.58-12.64-71.23-8.85-14.96,2.3-28.7,8.05-42.55,13.58-10.5,4.19-21.09,6.96-32.53,4.66-9.01-1.81-16.7-6.36-24.41-10.94-5.43-3.23-10.85-6.46-16.92-8.4-1.28-.41-2.52-1.19-3.64.12-.97,1.13,0,2.17.34,3.23,6.49,20.63,18.32,37.83,33.77,52.75,1.68,1.62,2.66,1.15,4.18.06,2.41-1.71,4.99-3.04,8.18-.88-.64.54-.95.95-1.37,1.14-9.68,4.48-11.76,8.67-9.66,19.36.8,4.07,1.15,8.19,1.44,12.35.33,4.79-2.15,9.12-1.93,14.34,5.22-3.16,9.84-6.08,13.85-9.83,8.49-7.94,15.18-17.11,18.98-28.21.36-1.05.56-2.66,2.04-2.28,1.55.4.87,1.96.6,2.98-.81,3.04-1.55,6.14-2.73,9.04-1.37,3.35.03,4.95,2.78,6.63,29.93,18.21,62.1,24.63,96.6,18.19,9.77-1.83,20.25-2.46,27.45-11,.4-.48,1.12-.7,1.7-1.02,1.69-.92,3.5-1.67,4.87.29,1.34,1.92-.5,3.08-1.57,4.18-4.29,4.42-9.68,7.59-13.88,12.16-3.65,3.97-6.38,8.47-5.8,13.83.77,7.15,2.47,14.21,3.86,21.78,14.99-10.38,25.7-23.44,33.07-39.3,2.03-4.37,3.8-8.83,5.11-13.47.34-1.2.78-2.86,2.59-2.33,1.8.52,1.22,2.16,1.01,3.39-.37,2.12-.94,4.21-1.43,6.31.33.28.66.57.99.85,21.49-11.48,36.93-28.53,46.62-50.8,7.16-16.44,10.76-33.7,12.42-51.53,1.71-18.35,1.6-36.33-4.37-54.11Zm-191.41,85.09c12.88-11.19,27.74-17.26,47.98-17.15,7.25-.11,16.99,2.31,26.4,6.32,2.85,1.21,5.12,3.05,6.67,5.73.73,1.26,1.78,2.45.64,4.08-.98,1.41-2.26,1.94-3.86,1.6-2.58-.54-5.18-.75-7.71-1.78-23.29-9.45-45.96-7.64-68.07,3.94-1.3.68-2.85,2.93-4.24,1.08-1.38-1.83,1.08-2.85,2.19-3.81Zm94.33,34.36c-.35,6.81-3.37,12.6-8.92,16.54-11.58,8.22-24.73,10.96-38.87,10.01-8.6.75-17.1-.6-25.45-2.96-9.12-2.57-16.66-7.32-21.25-16-5.78-10.94-1.95-18.65,7.5-24.32,10.27-6.16,21.56-8.91,33.58-9.81,12.99-.97,25.37.79,37.42,5.34,10.34,3.91,16.45,11.98,15.98,21.2Zm4.9-28.4c-3.43.03-6.73-3.17-6.77-6.57-.04-3.52,2.98-6.49,6.68-6.55,3.6-.06,6.64,2.9,6.69,6.51.05,3.57-2.96,6.58-6.6,6.61Zm14.37-2.23c.33-1.3,1.38-1.68,2.67-1.72,6.7-.21,12.98-2.05,19.16-4.59,1.67-.69,4.37-2.43,5.75.25,1.43,2.76-.77,4.75-2.84,6.15-4.51,3.06-9.65,4.18-15.87,4.27-1.9.3-4.45-.43-6.95-1.34-1.33-.49-2.33-1.42-1.92-3.02Zm30.05,35.38c-10.96,8.35-18.23,8.07-26.05-3.78-2.46-3.74-.35-6.44,2.77-8.22,5.28-3.02,11.05-4.48,17.2-4.1,3.97-.02,8.64-.78,10.42,3.82,1.9,4.9-.42,9.29-4.34,12.28Zm15.31,8.63c-.69.72-1.4,1.43-2.15,2.09-1.07.93-2.19,1.53-3.54.41-1.23-1.02-1.37-2.38-.74-3.6.75-1.46,1.87-2.73,2.86-4.06,21.54-28.75,32.57-60.96,31.69-97.01-.16-6.63-1.13-13.22-2.63-19.71-.31-1.35-2-3.64.43-4.25,1.86-.47,1.8,2.12,2.11,3.34,3.19,12.57,5.78,25.25,5.66,38.36-1.04,32.19-11.06,60.83-33.7,84.44Z"/>
        <path class="cls-7" d="m28.77,97.15C11.24,115.2,1.22,136.21,6.24,162.08c2.3,11.87,6.41,23.05,16.24,31.17,15.92,13.14,33.91,14.96,53.08,9.58,18.04-5.06,25.85-26.27,9.86-40.99-2.82-2.59-5.71-5.11-8.59-7.63-1.13-.98-2.61-1.83-2.1-3.61.58-2,2.42-2.08,4.08-2.09,6.91-.08,13.12,1.93,18.29,6.62,1.72,1.56,3.4,3.37,1.89,6.05-.23,1.4-1.25,2.72-.47,4.23,5.74-3.42,6.26-6.68,1.74-11.24-3-3.03-6.81-4.73-10.67-6.28-3.54-1.42-7.2-2.54-10.7-4.05-7.92-3.41-11.19-9.17-10.31-17.85.12-1.16.19-2.34.5-3.45,4.04-14.31,10.25-27.34,21.65-37.42.42-.37.85-.74,1.28-1.1-5.18-7.45-10.29-14.9-15.12-22.38-17.54,9.45-33.86,20.83-48.12,35.51Zm54.32,96.4c.1,2.14-1.23,2.9-3.09,3.08-1.72.16-3.16-.5-3.28-2.24-.14-1.96,1.21-2.93,3.19-2.91,1.59-.12,3.09-.08,3.18,2.07Zm-4.95-13.94c1.69.35,3.52.71,4.26,2.64-.43,1.6-1.55,2.19-2.95,2.08-1.77-.13-3.18-.91-3.16-2.98,0-1.14.73-1.97,1.85-1.74Zm-28.66-19.53c1.88,4.05,3.83,8.03,7.3,11.02.79.68,1.31,1.51.63,2.58-.48.76-1.2,1.02-2.09,1.03-5.31.07-12.63-7.83-12.05-13.11.22-2,.73-3.94,3.04-4.41,1.95.12,2.57,1.58,3.18,2.89Zm8.47-68.58c-.15,1.14-.36,2.35-.86,3.37-6.93,14.04-10.23,29.47-16.69,43.69-1.73,3.81-3.97,7.17-7.54,9.66-7,4.89-14.57,1.82-15.83-6.67-.32-2.13-.28-4.31-.41-6.47-.61-18.63,8.34-32.15,22.93-42.57,3.5-2.5,6.98-5.08,11.08-6.62,4.72-1.77,7.96.66,7.32,5.61Z"/>
        <path class="cls-7" d="m361.15,71.25c-7.74,4.39-15.48,9.05-23.22,13.79,1.26,1.7,2.42,3.44,3.48,5.21l23.57-10.42c-1.23-2.89-2.51-5.75-3.83-8.58Z"/>
        <path class="cls-6" d="m352.77,248.27c2.67,12.61,5.86,24.42,3.4,37.68-6.49-7.56-12.05-14.9-16.57-23-.84-1.51-.53-2.7.87-3.88,3.93-3.31,7.73-6.77,12.3-10.8Z"/>
        <path class="cls-6" d="m169.69,279.76c-4.48-7.65-7.2-15.84-10.71-23.66-.94-2.08.71-3.63,1.82-4.78,1.25-1.3,2.18.66,3.12,1.37,3.71,2.8,7.28,5.79,11.09,8.44,1.92,1.34,2.53,2.52,1.96,4.91-1.22,5.1-3.03,9.77-7.26,13.71Z"/>
        <path class="cls-4" d="m98.98,161.18c-.23,1.4-1.25,2.72-.47,4.23,0,0,.02-.06.02-.06-1.38-.43-1.91.96-2.92,1.34-3.42-4.65-6.77-9.35-12.47-13.41,5.18,0,8.05,2,10.51,4.73,1.48,1.64,2.88,3.24,5.33,3.17Z"/>
        <path class="cls-9" d="m95.62,166.69c1.01-.38,1.54-1.77,2.92-1.34-1.73,2.55-2.07,2.71-2.92,1.34Z"/>
        <path class="cls-9" d="m320.74,264.03c-.36.12-.71.23-1.07.35.03-.4.06-.8.08-1.2.33.28.66.57.98.85Z"/>
        <path class="cls-3" d="m230.55,253.58c-8.6.75-17.1-.6-25.45-2.96-9.12-2.57-16.66-7.32-21.25-16-5.78-10.94-1.95-18.65,7.5-24.32,10.27-6.16,21.56-8.91,33.58-9.81,12.99-.97,25.37.79,37.42,5.34,10.34,3.91,16.45,11.98,15.98,21.2-.35,6.81-3.37,12.6-8.92,16.54-11.58,8.22-24.73,10.96-38.87,10.01Z"/>
        <path class="cls-3" d="m16.63,135.09c-.61-18.63,8.34-32.15,22.93-42.57,3.5-2.5,6.98-5.08,11.08-6.62,4.72-1.77,7.96.66,7.32,5.61-.15,1.14-.36,2.35-.86,3.37-6.93,14.04-10.23,29.47-16.69,43.69-1.73,3.81-3.97,7.17-7.54,9.66-7,4.89-14.57,1.82-15.83-6.67-.32-2.13-.28-4.31-.41-6.47Z"/>
        <path class="cls-12" d="m376.66,155.97c-1.04,32.19-11.06,60.83-33.7,84.44-.69.72-1.4,1.43-2.15,2.09-1.07.93-2.19,1.53-3.54.41-1.23-1.02-1.37-2.38-.74-3.6.75-1.46,1.87-2.73,2.86-4.06,21.54-28.75,32.57-60.96,31.69-97.01-.16-6.63-1.13-13.22-2.63-19.71-.31-1.35-2-3.64.43-4.25,1.86-.47,1.8,2.12,2.11,3.34,3.19,12.57,5.78,25.25,5.66,38.36Z"/>
        <path class="cls-14" d="m231.98,175.52c7.25-.11,16.99,2.31,26.4,6.32,2.85,1.21,5.12,3.05,6.67,5.73.73,1.26,1.78,2.45.64,4.08-.98,1.41-2.26,1.94-3.86,1.6-2.58-.54-5.18-.75-7.71-1.78-23.29-9.45-45.96-7.64-68.07,3.94-1.3.68-2.85,2.93-4.24,1.08-1.38-1.83,1.08-2.85,2.19-3.81,12.88-11.19,27.74-17.26,47.98-17.15Z"/>
        <path class="cls-3" d="m321.56,215.68c3.98-.02,8.64-.78,10.43,3.82,1.9,4.9-.42,9.29-4.34,12.28-10.96,8.35-18.23,8.07-26.05-3.78-2.46-3.74-.35-6.44,2.77-8.22,5.28-3.02,11.05-4.48,17.19-4.11Z"/>
        <path class="cls-11" d="m306.47,200.77c-1.9.3-4.45-.43-6.95-1.34-1.33-.49-2.33-1.42-1.92-3.02.33-1.3,1.38-1.68,2.67-1.72,6.7-.21,12.98-2.05,19.16-4.59,1.67-.69,4.37-2.43,5.75.25,1.43,2.76-.77,4.75-2.84,6.15-4.51,3.06-9.65,4.18-15.87,4.27Z"/>
        <path class="cls-13" d="m283.23,198.63c-3.43.03-6.73-3.17-6.77-6.57-.04-3.52,2.98-6.49,6.68-6.55,3.6-.06,6.64,2.9,6.69,6.51.05,3.57-2.96,6.58-6.6,6.61Z"/>
        <path class="cls-10" d="m46.29,157.19c1.95.12,2.57,1.58,3.18,2.89,1.88,4.05,3.83,8.03,7.3,11.02.79.68,1.31,1.51.63,2.58-.48.76-1.2,1.02-2.09,1.03-5.31.07-12.63-7.83-12.05-13.11.22-2,.73-3.94,3.04-4.41Z"/>
        <path class="cls-15" d="m79.91,191.48c1.59-.12,3.09-.08,3.19,2.07.1,2.14-1.23,2.9-3.09,3.08-1.72.16-3.16-.5-3.28-2.24-.14-1.96,1.21-2.93,3.18-2.91Z"/>
        <path class="cls-8" d="m82.4,182.25c-.43,1.6-1.55,2.19-2.95,2.08-1.77-.13-3.18-.91-3.16-2.98,0-1.14.73-1.97,1.85-1.74,1.69.35,3.52.71,4.26,2.64Z"/>
        <path class="cls-1" d="m336.73,87.47c-46.34-61.51-159.45-71.09-250.96,6.31"/>
        <path class="cls-1" d="m363.58,69.88c-105.54-145.83-289.89-9.54-289.89-9.54"/>
      </g>
    </g>
  </g>
</svg>